<svg width="99" height="99" viewBox="0 0 99 99" fill="none" xmlns="http://www.w3.org/2000/svg">
<path d="M15.0753 66.082C11.8378 66.082 8.59962 66.057 5.3622 66.0909C3.66415 66.1094 2.7547 65.356 2.18681 63.7225C-3.7741 46.567 2.88681 23.873 16.8772 12.2432C23.8531 6.44486 31.5717 2.60268 40.3535 0.768316C42.4809 0.323841 44.6792 0.194774 46.8525 0.0124661C48.4249 -0.119828 49.0387 0.811877 48.9622 2.28163C48.6489 8.27197 48.5925 14.2615 48.9961 20.2502C49.1137 21.9886 48.2074 22.6605 46.5505 22.8654C34.4265 24.365 25.1782 33.1247 23.1901 45.161C22.1269 51.6055 23.2417 57.7378 26.7006 63.3643C27.8606 65.2511 27.4965 66.0191 25.2716 66.0651C21.8723 66.1344 18.4722 66.0828 15.0753 66.082ZM74.0021 33.0311C71.4244 33.0585 71.165 33.4344 72.3588 35.6407C74.1479 38.9416 75.6292 42.336 76.0368 46.1105C76.819 53.3527 75.162 59.8932 70.5874 65.6698C65.9959 71.4722 60.0535 74.9126 52.8006 76.0758C51.0872 76.3501 50.4919 77.1358 50.508 78.8185C50.5636 84.5725 50.5886 90.3289 50.4911 96.0813C50.454 98.2778 51.3901 98.8788 53.4216 98.7949C57.0175 98.6473 60.5191 97.9229 63.8862 96.8258C76.7006 92.6513 86.7697 85.0678 93.1043 72.8758C99.2924 60.9645 100.596 48.595 97.078 35.6608C96.5359 33.6676 95.467 32.9125 93.4298 32.9932C90.2777 33.1174 87.1169 33.0263 83.9592 33.0271C80.6372 33.023 77.3176 32.9964 73.9988 33.0311H74.0021ZM41.6303 85.9067C41.3186 79.8777 36.2824 74.761 30.1201 74.786C23.7154 74.811 19.1158 79.5857 19.1802 86.1431C19.2439 92.7296 24.0408 97.2154 30.9852 97.1824C35.8071 97.8616 41.9606 92.2996 41.6303 85.9067Z" fill="url(#paint0_linear_2568_56546)"/>
<path d="M62.0391 12.3866C62.0391 6.00022 66.5114 1.38042 72.7711 1.44737C78.1915 1.50545 83.7263 5.67756 83.5467 12.4391C83.3815 18.7037 79.0889 23.196 72.8815 23.2759C66.6741 23.3557 62.0391 18.7109 62.0391 12.3866Z" fill="#FC0300"/>
<defs>
<linearGradient id="paint0_linear_2568_56546" x1="-0.00181306" y1="49.3984" x2="98.9976" y2="49.3984" gradientUnits="userSpaceOnUse">
<stop stop-color="#37A6F5"/>
<stop offset="1" stop-color="#0E72FF"/>
</linearGradient>
</defs>
</svg>
