<svg width="22" height="22" viewBox="0 0 22 22" fill="none" xmlns="http://www.w3.org/2000/svg">
<g clip-path="url(#clip0_2326_14801)">
<path d="M15.5917 7.0957H14.4401C14.1897 7.0957 13.9515 7.21602 13.8042 7.42227L9.94437 12.7749L8.19615 10.3491C8.04883 10.1453 7.81312 10.0225 7.56022 10.0225H6.40865C6.24906 10.0225 6.15575 10.2042 6.24906 10.3343L9.30843 14.5772C9.3807 14.6781 9.47598 14.7602 9.58636 14.8169C9.69674 14.8737 9.81905 14.9032 9.94314 14.9032C10.0672 14.9032 10.1895 14.8737 10.2999 14.8169C10.4103 14.7602 10.5056 14.6781 10.5778 14.5772L15.7488 7.40753C15.8446 7.2774 15.7513 7.0957 15.5917 7.0957Z" fill="#52C41A"/>
<path d="M11 0C4.92545 0 0 4.92545 0 11C0 17.0746 4.92545 22 11 22C17.0746 22 22 17.0746 22 11C22 4.92545 17.0746 0 11 0ZM11 20.1339C5.9567 20.1339 1.86607 16.0433 1.86607 11C1.86607 5.9567 5.9567 1.86607 11 1.86607C16.0433 1.86607 20.1339 5.9567 20.1339 11C20.1339 16.0433 16.0433 20.1339 11 20.1339Z" fill="#52C41A"/>
</g>
<defs>
<clipPath id="clip0_2326_14801">
<rect width="22" height="22" fill="white"/>
</clipPath>
</defs>
</svg>
