<svg width="20" height="20" viewBox="0 0 20 20" fill="none" xmlns="http://www.w3.org/2000/svg">
<path d="M13.7251 6.60245C13.7251 6.50792 13.6477 6.43057 13.5532 6.43057L12.1352 6.43702L9.9997 8.98292L7.8663 6.43917L6.44618 6.43272C6.35165 6.43272 6.27431 6.50792 6.27431 6.6046C6.27431 6.64542 6.28935 6.68409 6.31513 6.71632L9.11024 10.0464L6.31513 13.3743C6.28917 13.4058 6.27476 13.4452 6.27431 13.486C6.27431 13.5806 6.35165 13.6579 6.44618 13.6579L7.8663 13.6515L9.9997 11.1056L12.1331 13.6493L13.5511 13.6558C13.6456 13.6558 13.7229 13.5806 13.7229 13.4839C13.7229 13.4431 13.7079 13.4044 13.6821 13.3722L10.8913 10.0442L13.6864 6.71417C13.7122 6.68409 13.7251 6.64327 13.7251 6.60245Z" fill="#FF4D4F"/>
<path d="M10 0.375C4.68477 0.375 0.375 4.68477 0.375 10C0.375 15.3152 4.68477 19.625 10 19.625C15.3152 19.625 19.625 15.3152 19.625 10C19.625 4.68477 15.3152 0.375 10 0.375ZM10 17.9922C5.58711 17.9922 2.00781 14.4129 2.00781 10C2.00781 5.58711 5.58711 2.00781 10 2.00781C14.4129 2.00781 17.9922 5.58711 17.9922 10C17.9922 14.4129 14.4129 17.9922 10 17.9922Z" fill="#FF4D4F"/>
</svg>
