<svg width="66" height="66" viewBox="0 0 66 66" fill="none" xmlns="http://www.w3.org/2000/svg">
<path d="M66 32.9985C65.9997 25.3638 63.3521 17.9655 58.5085 12.064C53.6648 6.16248 46.9247 2.12302 39.4366 0.633881C31.9485 -0.855258 24.1758 0.298053 17.4427 3.8973C10.7096 7.49656 5.43283 13.3191 2.51144 20.3727C-0.409939 27.4264 -0.795169 35.2747 1.42139 42.5806C3.63795 49.8864 8.31915 56.1977 14.6674 60.439C21.0156 64.6804 28.6381 66.5893 36.236 65.8407C43.8339 65.092 50.9372 61.732 56.3356 56.3332C62.5239 50.1443 66.0003 41.7506 66 32.9985V32.9985Z" fill="#FF0000"/>
<path d="M63.8622 32.9985C63.8623 25.8583 61.3866 18.939 56.857 13.4195C52.3274 7.90007 46.024 4.12192 39.021 2.72886C32.0181 1.3358 24.7487 2.41401 18.4515 5.77979C12.1544 9.14557 7.21913 14.5907 4.48661 21.1873C1.7541 27.7839 1.39343 35.1239 3.46605 41.9566C5.53867 48.7894 9.91634 54.6921 15.8532 58.659C21.79 62.6259 28.9186 64.4116 36.0245 63.7118C43.1303 63.0121 49.7736 59.8701 54.8226 54.8213C57.6885 51.9555 59.9619 48.5533 61.5129 44.809C63.064 41.0646 63.8622 37.0514 63.8622 32.9985V32.9985Z" fill="white"/>
<path d="M60.4799 32.9985C60.4798 26.6408 58.2752 20.4798 54.2418 15.5653C50.2084 10.6508 44.5957 7.2869 38.3601 6.04671C32.1245 4.80652 25.6518 5.7668 20.0449 8.76394C14.4379 11.7611 10.0437 16.6096 7.61082 22.4834C5.17798 28.3573 4.85709 34.8929 6.70283 40.9768C8.54857 47.0607 12.4467 52.3164 17.7331 55.8484C23.0195 59.3803 29.367 60.9701 35.6941 60.3467C42.0212 59.7233 47.9364 56.9253 52.4318 52.4296C57.5853 47.2761 60.4806 40.2866 60.4806 32.9985H60.4799Z" fill="#FF0000"/>
<path fill-rule="evenodd" clip-rule="evenodd" d="M23.0442 47.7744C22.3585 47.7645 21.7037 47.4876 21.2189 47.0027L18.994 44.7777C18.4996 44.2833 18.2219 43.6128 18.2219 42.9137C18.2219 42.2146 18.4996 41.5441 18.994 41.0497L27.047 32.9967L18.994 24.9455C18.4996 24.4512 18.2219 23.7806 18.2219 23.0815C18.2219 22.3824 18.4996 21.7119 18.994 21.2175L21.2189 18.9936C21.7133 18.4994 22.3837 18.2218 23.0828 18.2218C23.7818 18.2218 24.4522 18.4994 24.9466 18.9936L32.9993 27.0466L41.0523 18.9936C41.5467 18.4993 42.2173 18.2216 42.9165 18.2216C43.6157 18.2216 44.2862 18.4993 44.7807 18.9936L47.0056 21.2186C47.5 21.7129 47.7777 22.3834 47.7777 23.0826C47.7777 23.7817 47.5 24.4522 47.0056 24.9466L38.9526 32.9985L47.0056 41.0514C47.5 41.5458 47.7777 42.2163 47.7777 42.9155C47.7777 43.6146 47.5 44.2851 47.0056 44.7795L44.7807 47.0044C44.2862 47.4988 43.6157 47.7765 42.9165 47.7765C42.2173 47.7765 41.5467 47.4988 41.0523 47.0044L32.9993 38.9515L24.9466 47.0044C24.6971 47.2534 24.4002 47.4499 24.0734 47.5821C23.7466 47.7144 23.3967 47.7797 23.0442 47.7744V47.7744Z" fill="white"/>
</svg>
