<svg id="Layer_1" data-name="Layer 1" xmlns="http://www.w3.org/2000/svg" viewBox="0 0 1864.37 1864.38"><defs><style>.cls-1{fill:#fdcd01;}.cls-2{fill:#fff;}.cls-3{fill:#0a0;}.cls-4{fill:#ffca00;}</style></defs><path class="cls-1" d="M1652.69,170.5a932.18,932.18,0,1,1-273-659.16,932.2,932.2,0,0,1,273,659.16Zm0,0" transform="translate(211.69 761.69)"/><path class="cls-2" d="M1592.29,170.5A871.79,871.79,0,1,1,1337-445.95,871.74,871.74,0,0,1,1592.29,170.5Zm0,0" transform="translate(211.69 761.69)"/><path class="cls-3" d="M1496.75,170.5a776.26,776.26,0,1,1-227.36-548.89A776.21,776.21,0,0,1,1496.75,170.5Zm0,0" transform="translate(211.69 761.69)"/><path class="cls-4" d="M1496.75,170.5a776.26,776.26,0,1,1-227.36-548.89A776.21,776.21,0,0,1,1496.75,170.5Zm0,0" transform="translate(211.69 761.69)"/><path class="cls-2" d="M852.73,652.74q0,32.88-6.85,55.31t-24.25,36.07q-17.39,13.64-45.86,19.63t-71.68,6q-43.24,0-72.22-6T586,744.12q-16.89-13.62-23.73-36.07t-6.85-55.31q0-33.66,6.85-56.5T586,559.37q16.85-14,45.85-20t72.22-6q43.21,0,71.68,6t45.86,20q17.4,14,24.25,36.87T852.73,652.74ZM820.05,417.9a28.07,28.07,0,0,1-6.32,14.43q-5.29,6.42-18.45,10.82T759.44,450q-22.7,2.42-55.35,2.41-33.75,0-55.88-2.41t-35.31-6.81q-13.2-4.39-18.45-10.82a27.84,27.84,0,0,1-6.33-14.43L560.71-309.86A28.91,28.91,0,0,1,567-328.29q6.33-8,22.67-13.23T634-349.14q27.93-2.4,70.11-2.4t69.58,2.81q27.41,2.81,43.75,8t23.19,12.82a26.15,26.15,0,0,1,6.85,18Z" transform="translate(211.69 761.69)"/></svg>