<svg width="35" height="35" viewBox="0 0 35 35" fill="none" xmlns="http://www.w3.org/2000/svg">
<path fill-rule="evenodd" clip-rule="evenodd" d="M31.141 24.7457H25.978C26.4419 22.8018 26.7156 20.6915 26.7831 18.5183H32.9177C32.7756 20.6965 32.1711 22.8194 31.1444 24.7457H31.141ZM22.719 32.0405C23.9194 30.5137 24.7921 28.6197 25.396 26.7877H29.8293C28.0179 29.1903 25.5478 31.0151 22.719 32.0405ZM18.5241 32.7747V26.7897H23.2258C22.3935 29.0591 20.8146 32.0052 18.5252 32.7747H18.5241ZM18.5241 18.5183H24.728C24.6575 20.7137 24.3623 22.8294 23.8642 24.7457H18.5252L18.5241 18.5183ZM18.5241 10.2535H23.8654C24.3638 12.1706 24.659 14.2794 24.7292 16.4744H18.5252L18.5241 10.2535ZM18.5241 2.22455C20.8134 2.99405 22.3919 5.93328 23.2258 8.20268H18.5252L18.5241 2.22455ZM29.8305 8.20153H25.3971C24.7932 6.37228 23.921 4.48437 22.7201 2.95763C25.5482 3.97987 28.0184 5.80166 29.8305 8.20153ZM31.141 10.2524C32.1677 12.1763 32.7722 14.2971 32.9142 16.4732H26.7797C26.7137 14.2997 26.44 12.1963 25.9745 10.2524H31.141ZM16.4744 8.20153H11.773C12.6065 5.93213 14.185 2.9929 16.4744 2.2234V8.20153ZM16.4744 16.4732H10.2708C10.341 14.2778 10.6366 12.1687 11.1346 10.2524H16.4744V16.4732ZM16.4744 24.7445H11.1346C10.6362 22.8275 10.341 20.7187 10.2708 18.5237H16.4744V24.7445ZM16.4744 32.7735C14.185 32.004 12.6065 29.0648 11.773 26.7954H16.4744V32.7735ZM5.16952 26.7969H9.60289C10.2064 28.6266 11.079 30.516 12.2799 32.0408C9.4518 31.0186 6.98159 29.1968 5.16952 26.7969ZM3.85903 24.7461C2.83232 22.8221 2.22778 20.7014 2.08576 18.5252H8.22032C8.28627 20.6988 8.56002 22.8022 9.02548 24.7461H3.85903ZM3.85903 10.247H9.0228C8.55887 12.1909 8.28512 14.3012 8.21764 16.4748H2.08307C2.22587 14.2961 2.8313 12.1733 3.85903 10.247ZM12.2799 2.95916C11.0794 4.4859 10.2068 6.37151 9.60289 8.20306H5.16952C6.98154 5.80305 9.45175 3.98151 12.2799 2.95916ZM17.5 0C7.86413 0 0 7.86451 0 17.5C0 27.1355 7.86451 35 17.5 35C27.1355 35 35 27.1355 35 17.5C35 7.86451 27.1351 0 17.5 0Z" fill="white"/>
</svg>
